<svg version="1.2" xmlns="http://www.w3.org/2000/svg" viewBox="0 0 109 117" width="109" height="117"><style>.a{fill:#231f20}</style><path fill-rule="evenodd" class="a" d="m108.3 31.3c-0.5 9-1.1 18.4-3.6 27.1-1.2 4.3-2.9 8.4-4.7 12.4-1 2.5-2.1 5.5-5.1 6.3q-1.1 0.3-1.9 0.1c-0.5 1.7-0.8 3.4-1.4 5-1.6 4.4-4.4 8.7-6.9 12.7-2.5 4.1-8 10.3-12.1 7.3-0.6 1.2-1.3 2.6-1.7 3.1-1.5 1.8-3.1 3.5-4.7 5.3-2.7 3.2-5 6.7-9.7 5.9-4.4-0.8-7.7-4-11.1-6.7-3.1-2.4-6.1-5-8.9-7.7-0.9 0.6-2 0.6-3.1 0.1-4.6-2.3-7.1-8.5-9.3-12.7-1.8-3.3-3.4-6.6-4.9-10-0.6-1.4-1-3-1.5-4.5-0.4 0.1-0.8 0.1-1.4 0-2.3-0.3-3.1-2.3-4.1-4.3-2.9-6.2-5.2-13.2-7-19.9-1.9-7.4-3.3-15.2-4.1-22.8-0.9-7.9-0.5-15.4-0.2-23.2 0-0.7 0.2-1.3 0.6-1.7q0 0 0 0c-0.1-3.9 5.9-3.9 6 0 0 7.2 3.6 15.1 6.1 21.7 2 5.4 4.7 15.2 10.2 17.8 7.3 3.5 14.5-5.2 20.6-7.9 2.4-1 4.9-1.6 7.5-1.2 1.3 0.1 2.4 0.5 3.5 1.1 0.2 0.1 0.9 0.6 1.5 1 0.3-0.2 0.8-0.3 1.2-0.6 1.2-0.5 2.7-0.9 3.9-1.1 2.5-0.4 4.8-0.1 7.2 0.8 5.4 2.1 11.6 11.7 17.6 6.9 5.5-4.4 6.2-12.4 8.9-18.4 2.6-5.9 2.7-12.5 4.4-18.7 0.1-0.6 0.3-1.3 0.7-1.8l0.4-0.5c1-1.3 2.7-1.1 3.8-0.2 0.9 0.3 1.6 0.9 2 2 1.3 4.3 0.3 8.6 0.7 13 0.4 4.8 0.9 9.4 0.6 14.3zm-6-8.2q0-0.2 0-0.4-0.6 1.8-1.4 3.5c-3.5 7.4-4.1 15.4-11.1 20.7-5.2 3.9-11 2.2-15.6-1.6-3.3-2.8-7.4-6.3-11.9-5.2-2.1 0.5-3.5 2.5-5.8 2.3-1.6-0.2-1.7-1.1-3-1.8-3.2-1.9-5.2-1.2-8.3 0.4-3.7 1.9-6.6 4.8-10.3 6.4-5.1 2.3-13 3.4-17-1.4-4.8-5.7-7.5-12.7-10.1-19.6q-0.5-1.4-1.1-2.8c0.4 5.3 1.2 10.5 2.2 15.7 1.2 5.6 2.3 11 4.2 16.4 1 2.8 1.8 5.6 2.7 8.3 0.5 1.3 1.1 2.4 1.6 3.6 1.4-0.7 3.1-0.5 4 1.1 1.3 1.9 1.6 4 2.4 6.2 1 2.8 2.3 5.5 3.7 8.2 1.4 2.8 2.9 5.6 4.5 8.3 0.5 0.8 0.9 1.7 1.5 2.6 1.1-0.7 2.6-0.8 3.7 0.4 3.4 3.6 6.9 6.8 10.8 9.9 2.7 2.1 7.4 7.6 11.1 5.3 1.6-1 3.1-3.5 4.4-5 1.2-1.5 2.6-2.8 3.7-4.4 1.5-2.3 2.2-4.3 5-5.3 1.2-0.4 2.9 0.3 3.4 1.4q0.1 0.1 0.2 0.3c3.9-2 8.2-12.3 9.5-15.1 1.7-3.7 2-8.4 3.7-12.1q0-0.7 0-1.3c0-3.4 4.7-3.8 5.8-1.1 0.7-1.7 1.8-3.4 2.2-4.5 2.5-6.5 3.7-13.3 4.3-20.3 0.5-6.4 1.3-12.7 1-19.1z"/><path fill-rule="evenodd" class="a" d="m83.5 59.9q-0.2 0.3-0.4 0.5-0.4 0.6-0.9 0.9c0.2 0.8 0 1.8-0.7 2.6-1.5 1.6-2 4.3-3.2 6.1-1.3 2-2.7 4-4.1 5.9-2.3 3-5.4 6-9 7.5-2.9 1.1-5.9 0.8-7.6-2-0.3-0.5-1.2-4.4-1.3-4.4-0.1 0-0.8 3.8-0.9 4.1-2.3 8.4-9.5 6.2-14.1 1-2.8-3.1-5.1-7-7.3-10.6-2.1-3.4-4.5-6.9-4.8-10.9q-0.2-0.1-0.3-0.2c-3.1-2.3-0.1-7.6 3-5.2 3.5 2.7 7.8 2.1 11.9 1.5 4.5-0.7 6.9-2.4 10.2-5 1.9-1.5 4.1-0.9 5.1 1.3 1 2.4 8.3 3.6 10.5 3.6 3.6 0.1 7-0.1 10.5-1.1 2.3-0.7 5 2.3 3.4 4.4zm-8.2 2.7c-3.5 0.4-7.1 0.3-10.3-0.5-3.3-0.8-6.8-2-9.3-4.2-3.3 2.4-6.4 4.1-10.9 4.7-2.9 0.4-6 0.8-9 0.4 1.3 3.2 3.8 6.5 5.5 8.8 1.5 2.2 3.9 6.7 6.4 7.9 3 1.5 2.2-2.9 3.1-5.2 0.8-1.9 2.5-4 4.6-4.5 2.2-0.4 4.1 0.7 5.3 2.4 1.7 2.3 0.7 6.4 4.1 4.4 3.5-2.1 5.6-6 7.9-9.2 1.1-1.6 1.8-3.4 2.6-5z"/></svg>