<svg version="1.2" xmlns="http://www.w3.org/2000/svg" viewBox="0 0 74 202" width="74" height="202"><style>.a{fill:#231f20}</style><path fill-rule="evenodd" class="a" d="m69.7 201.3c-15.9-3.8-29.8-14.4-34.6-30.6q-0.1-0.4-0.1-0.8c-1.1-0.4-2-1.1-2.7-2.2-2.3-3.4-1.2-8.3-2.1-12.1q-0.2-0.7 0-1.4-0.2 0-0.4 0c-5.5-0.5-7.6-1.3-9.3-6.7-4-12.7-5.6-26.5-7.6-39.7-0.9-6.3-2.7-12.2-3.2-18.5-0.5-6.8-0.9-13.6-1.1-20.4-0.5-13.4-1-26.8-1.3-40.2-1.2-0.1-2.4-0.3-3.4-0.9-2.6-1.4-2.6-4.6-3-7.2-0.3-2.4-1.1-6-0.2-8.2 1-2.3 3.2-2.5 5.5-2.5-0.3-0.9-0.4-1.8-0.4-2.8 0.1-1.2 0-2.4 0-3.6 0-3.9 6-3.9 6 0q0.1 1.6 0 3.1c0 0.5 0 1 0 1.4q0.2 0.4 0.3 0.8 0.1 0.4 0.1 0.7 0.9 0 1.9 0-0.1-0.1-0.1-0.2v-5.8c0-3.9 6-3.9 6 0v5.7q1.3 0 2.5-0.1c0-1.7-0.2-3.5-0.3-5.3 0-1.6 1.4-3 3-3 1.7 0 3 1.4 3 3 0.1 1.7 0.3 3.4 0.3 5.2q1.6-0.1 3.2-0.1c-0.1-1.3-0.3-2.7-0.3-4.1 0-1.6 1.4-3 3-3 1.6 0 3 1.4 3 3 0 1.4 0.2 2.7 0.3 4q1.8 0 3.5 0.1c-0.1-0.7-0.2-1.3-0.2-1.9-0.1-1 0-1.9 0-2.8 0-3.9 6-3.9 6 0 0 0.9-0.1 1.8 0 2.8 0 0.6 0.1 1.3 0.2 1.9q1.4 0 2.8 0.1c-0.2-0.6-0.2-1.2-0.2-1.8 0.1-1.1 0-2.3 0-3.4 0-3.9 6-3.8 6 0 0 1 0.1 2 0 3 0 1.1 0 1.1 0.3 2q0 0.2 0 0.4 0.4 0 0.8 0c0.1-1.8-0.2-3.6-0.2-5.4-0.1-3.9 5.9-3.8 6 0 0 1.6 0.3 3.1 0.3 4.6q0 0.5-0.1 0.9c2.2-0.1 4.6 0 5.9 0.8 2.8 1.5 1.9 4.8 2 7.3 0.1 2.3 1.4 5.6 0 7.7-0.8 1.3-2 1.7-3.4 1.9-0.1 23.4 0.5 47.5-2.9 70.7-1.7 12.2-4.2 24.2-5.8 36.5-0.6 4.6-0.5 10-1.7 14.5-0.8 3.1-3.5 3.4-6.2 3.6q-0.6 0.4-1.4 0.4-1.6 0.2-3.3 0.4c0.4 3.9 0.5 8 0.5 12-0.1 3.6-1.5 5.4-5.2 5.4q0 0 0 0c4.6 13.5 16.5 21.8 29.9 25 3.8 0.9 2.2 6.7-1.6 5.8zm-29-38.2c-1.1 0.1-2.3 0.1-3.5 0.2q-0.1 0-0.2 0c0.3 1.4 0.9 1.2 2.3 1.3q0.7 0 1.4-0.1 0.1-0.7 0-1.4zm-0.3-6q0 0 0-0.1c-1.3-0.1-2.7-0.2-4-0.2q0 0.3 0.1 0.6 0.1 0 0.3 0 0.5-0.1 1-0.1c0.8-0.1 1.6 0 2.5-0.2q0 0 0.1 0zm-13.1-134.1c6 0.1 11.7-0.8 17.6-1.1 5.2-0.2 10.4-1.4 15.6-1.3 1.2 0.1 2.3 0.3 3.5 0.3 0.4 0.1 0.8 0 1.2-0.1-0.3-1.2-0.4-3.4-0.3-4.1q0-0.6 0-1-1.4 0-2.8-0.1c-2.7-0.2-5.3-0.3-8.1-0.3-5.5 0-11.1-0.3-16.6-0.3-5.8 0-11.5-0.1-17.3 0.3-4.4 0.3-9.3-0.1-13.7 0.5 0 1.9 0.5 4.8 0.8 5.5 0.7 2-0.8 1.1 1.4 1.5q0 0 0 0c0.9-0.5 2.1-0.5 3-0.1 5.2-0.8 10.4 0.1 15.7 0.3zm21.5 123.8q0.6-0.3 1.3-0.4c0.6 0 1-0.2 1.2-0.2 0-0.5 0-1.2 0-1.5 0-2 0.4-4.3 0.7-6.3 0.7-5.3 1.3-10.8 2.3-16.1 1.9-10.7 4-21.4 5.2-32.2 2.3-20.9 1.8-42.2 1.9-63.2-7.1-0.1-14.3 0.8-21.3 1.5-4.8 0.5-9.6 0.7-14.4 0.5-4-0.2-7.9-0.8-11.9-0.4q-0.2 0-0.5 0.1c0.4 11.9 1.3 23.8 1.3 35.7 0 12.5 0.6 25 3.4 37.2 2.7 11.8 3.5 24.1 6.1 36.1 0.7 2.8 1.5 5.5 2.2 8.3 0.7 2.9 2.2 2.4 5.3 2.5 5.7 0.2 11.5-1.2 17.2-1.6z"/><path fill-rule="evenodd" class="a" d="m53 63c-0.3 8.1-0.9 16.5-2.7 24.5-1.3 5.9-4.3 9.9-10.9 10.1-5.7 0.1-9-3.1-11-8.2-2.9-7.1-4.3-15.3-5.4-22.9-0.9-6.3-1.3-14.4 1.2-20.4 2.9-6.9 8.9-8.1 15.8-8.7 0.9-0.1 1.6 0.2 2.1 0.6 3.7 0.3 7.2 1.6 9.4 4.9 3.7 5.5 1.8 13.9 1.5 20.1zm-5.5-11.6c-0.1-5.9-4-8.4-9.7-7.1-0.8 0.2-1.6 0-2.2-0.3-2 0.4-3.9 1.1-5 2.8-1.3 1.8-1.7 4.2-1.9 6.5-0.5 4.6-0.4 9.6 0.5 14.1 1 4.8 1.7 9.8 3 14.6 0.9 3.2 2 8.7 5.8 9.5 9.7 2 8.2-20.2 8.9-26.3 0.5-4.5 0.7-9.2 0.6-13.8z"/><path fill-rule="evenodd" class="a" d="m40.1 125.1c-5.3 0.3-10.3-3.4-10.5-8.9-0.3-5.6 3.9-9.1 9.2-9.3q0.5 0 0.9 0.1c1.4 0 2.7 0.4 4.1 1.6 2 1.6 3.9 3.5 4.4 6.1 1 5.3-2.7 10.1-8.1 10.4zm2.1-9.5c-0.3-0.9-1.2-1.6-1.9-2.1-0.9-0.8-1.2-0.6-2.4-0.2q-0.5 0.1-0.9 0.1c-2.5 1.4-1.2 5.7 2.5 5.7 1.9 0 3.4-1.4 2.7-3.5z"/></svg>